<svg width="192" height="192" viewBox="0 0 192 192" fill="none" xmlns="http://www.w3.org/2000/svg">
<rect width="192" height="192" fill="#252E66"/>
<path d="M178 84.582V105.419C178 110.008 176.837 113.419 174.51 115.652C172.184 117.884 168.802 119.001 164.366 119.001C162.009 119.001 159.775 118.706 157.666 118.117C155.587 117.528 153.835 116.675 152.408 115.559L155.293 110.349C156.347 111.218 157.635 111.9 159.155 112.396C160.675 112.892 162.21 113.14 163.761 113.14C166.181 113.14 167.949 112.582 169.066 111.466C170.183 110.349 170.741 108.644 170.741 106.349V105.512C169.811 106.442 168.709 107.156 167.437 107.652C166.166 108.148 164.801 108.396 163.343 108.396C160.054 108.396 157.449 107.466 155.525 105.605C153.602 103.714 152.64 100.892 152.64 97.1402V84.582H159.899V96.0704C159.899 100.132 161.59 102.163 164.971 102.163C166.708 102.163 168.104 101.605 169.159 100.489C170.214 99.3417 170.741 97.6518 170.741 95.4192V84.582H178Z" fill="white"/>
<path d="M148.68 108.396C147.967 108.923 147.083 109.326 146.028 109.605C145.004 109.853 143.934 109.977 142.817 109.977C139.808 109.977 137.497 109.217 135.884 107.698C134.271 106.179 133.464 103.946 133.464 101V79.0469H140.723V85.1399H146.912V90.7213H140.723V100.907C140.723 101.962 140.987 102.783 141.514 103.372C142.042 103.931 142.802 104.21 143.794 104.21C144.911 104.21 145.904 103.9 146.772 103.279L148.68 108.396Z" fill="white"/>
<path d="M116.859 104.162C118.162 104.162 119.31 103.976 120.302 103.604C121.326 103.201 122.272 102.581 123.141 101.744L127.003 105.93C124.645 108.628 121.202 109.976 116.673 109.976C113.85 109.976 111.353 109.434 109.181 108.349C107.01 107.232 105.335 105.697 104.156 103.744C102.977 101.79 102.388 99.5733 102.388 97.0927C102.388 94.6431 102.962 92.4415 104.109 90.4881C105.288 88.5036 106.886 86.9687 108.902 85.8834C110.949 84.7671 113.245 84.209 115.789 84.209C118.177 84.209 120.349 84.7206 122.303 85.7439C124.258 86.7361 125.809 88.1935 126.956 90.116C128.135 92.0074 128.725 94.2555 128.725 96.8601L110.205 100.442C110.732 101.682 111.554 102.612 112.671 103.232C113.819 103.852 115.215 104.162 116.859 104.162ZM115.789 89.6974C113.959 89.6974 112.47 90.2865 111.322 91.4648C110.174 92.6431 109.569 94.271 109.507 96.3485L121.698 93.9764C121.357 92.6741 120.659 91.6353 119.604 90.8601C118.55 90.085 117.278 89.6974 115.789 89.6974Z" fill="white"/>
<path d="M85.3704 99.7914L81.8805 103.233V109.605H74.6216V75.0938H81.8805V94.6286L92.4897 84.5821H101.145L90.7215 95.1868L102.075 109.605H93.2807L85.3704 99.7914Z" fill="white"/>
<path d="M59.4097 109.976C56.7418 109.976 54.3377 109.434 52.1973 108.349C50.0878 107.232 48.4282 105.697 47.2184 103.744C46.0396 101.79 45.4502 99.5733 45.4502 97.0927C45.4502 94.6121 46.0396 92.395 47.2184 90.4415C48.4282 88.4881 50.0878 86.9687 52.1973 85.8834C54.3377 84.7671 56.7418 84.209 59.4097 84.209C62.0464 84.209 64.342 84.7671 66.2963 85.8834C68.2817 86.9687 69.7241 88.5346 70.6238 90.5811L64.9934 93.6043C63.6906 91.3098 61.8138 90.1625 59.3631 90.1625C57.4708 90.1625 55.9043 90.7826 54.6634 92.0229C53.4226 93.2632 52.8022 94.9532 52.8022 97.0927C52.8022 99.2322 53.4226 100.922 54.6634 102.162C55.9043 103.403 57.4708 104.023 59.3631 104.023C61.8448 104.023 63.7216 102.876 64.9934 100.581L70.6238 103.651C69.7241 105.635 68.2817 107.186 66.2963 108.302C64.342 109.418 62.0464 109.976 59.4097 109.976Z" fill="white"/>
<path d="M33.3154 84.582H40.5743V109.605H33.3154V84.582Z" fill="white"/>
<path d="M36.9452 81.093C35.6113 81.093 34.5256 80.7054 33.688 79.9302C32.8504 79.155 32.4316 78.1938 32.4316 77.0465C32.4316 75.8992 32.8504 74.938 33.688 74.1628C34.5256 73.3876 35.6113 73 36.9452 73C38.2791 73 39.3648 73.3721 40.2024 74.1163C41.04 74.8605 41.4588 75.7907 41.4588 76.907C41.4588 78.1163 41.04 79.124 40.2024 79.9302C39.3648 80.7054 38.2791 81.093 36.9452 81.093Z" fill="#F4C62E"/>
<path d="M29.2158 108.396C28.5023 108.923 27.6182 109.326 26.5635 109.605C25.5398 109.853 24.4696 109.977 23.3528 109.977C20.3438 109.977 18.0327 109.217 16.4196 107.698C14.8065 106.179 14 103.946 14 101V79.0469H21.2589V85.1399H27.4476V90.7213H21.2589V100.907C21.2589 101.962 21.5226 102.783 22.05 103.372C22.5773 103.931 23.3373 104.21 24.33 104.21C25.4468 104.21 26.4394 103.9 27.308 103.279L29.2158 108.396Z" fill="white"/>
</svg>
